<svg width="166" height="166" viewBox="0 0 166 166" fill="none" xmlns="http://www.w3.org/2000/svg">
<path fill-rule="evenodd" clip-rule="evenodd" d="M83 166C128.84 166 166 128.84 166 83C166 37.1604 128.84 0 83 0C37.1604 0 0 37.1604 0 83C0 128.84 37.1604 166 83 166ZM73.472 91.616V52.64H56.96V89.888C56.96 94.688 56.256 98.24 54.848 100.544C53.44 102.848 51.008 104 47.552 104C44.032 104 41.6 102.816 40.256 100.448C38.976 98.016 38.72 93.888 39.488 88.064L23.36 90.944C22.528 96 22.816 100.512 24.224 104.48C25.632 108.384 28.224 111.456 32 113.696C35.776 115.872 40.768 116.96 46.976 116.96C55.424 116.96 61.952 114.752 66.56 110.336C71.168 105.856 73.472 99.616 73.472 91.616ZM134.16 58.016C130 54.432 124.144 52.64 116.592 52.64H86.3518V116H102.576V92.864H112.47L126 116H144.24L127.734 90.4197C130.24 89.5828 132.414 88.4136 134.256 86.912C138.416 83.52 140.496 78.592 140.496 72.128C140.496 66.24 138.384 61.536 134.16 58.016ZM121.488 79.232C119.888 80.512 117.488 81.152 114.288 81.152H102.576V65.12H114.288C117.488 65.12 119.888 65.76 121.488 67.04C123.088 68.32 123.888 70.336 123.888 73.088C123.888 75.904 123.088 77.952 121.488 79.232Z" fill="#F25F4C"/>
</svg>
