<svg width="165" height="165" viewBox="0 0 165 165" fill="none" xmlns="http://www.w3.org/2000/svg">
<path fill-rule="evenodd" clip-rule="evenodd" d="M82.5 165C128.063 165 165 128.063 165 82.5C165 36.9365 128.063 0 82.5 0C36.9365 0 0 36.9365 0 82.5C0 128.063 36.9365 165 82.5 165ZM73.472 90.616V51.64H56.96V88.888C56.96 93.688 56.256 97.24 54.848 99.544C53.44 101.848 51.008 103 47.552 103C44.032 103 41.6 101.816 40.256 99.448C38.976 97.016 38.72 92.888 39.488 87.064L23.36 89.944C22.528 95 22.816 99.512 24.224 103.48C25.632 107.384 28.224 110.456 32 112.696C35.776 114.872 40.768 115.96 46.976 115.96C55.424 115.96 61.952 113.752 66.56 109.336C71.168 104.856 73.472 98.616 73.472 90.616ZM134.16 57.016C130 53.432 124.144 51.64 116.592 51.64H86.3518V115H102.576V91.864H112.47L126 115H144.24L127.734 89.4197C130.24 88.5828 132.414 87.4136 134.256 85.912C138.416 82.52 140.496 77.592 140.496 71.128C140.496 65.24 138.384 60.536 134.16 57.016ZM121.488 78.232C119.888 79.512 117.488 80.152 114.288 80.152H102.576V64.12H114.288C117.488 64.12 119.888 64.76 121.488 66.04C123.088 67.32 123.888 69.336 123.888 72.088C123.888 74.904 123.088 76.952 121.488 78.232Z" fill="#0F0E17"/>
</svg>
