<svg width="67" height="67" viewBox="0 0 67 67" fill="none" xmlns="http://www.w3.org/2000/svg">
<circle cx="33.5" cy="33.5" r="33.5" fill="#0F0E17"/>
<mask id="path-2-outside-1_278_451" maskUnits="userSpaceOnUse" x="12" y="21" width="45" height="25" fill="black">
<rect fill="white" x="12" y="21" width="45" height="25"/>
<path d="M30.824 22.88V35.872C30.824 38.5387 30.056 40.6187 28.52 42.112C26.984 43.584 24.808 44.32 21.992 44.32C19.9227 44.32 18.2587 43.9573 17 43.232C15.7413 42.4853 14.8773 41.4613 14.408 40.16C13.9387 38.8373 13.8427 37.3333 14.12 35.648L19.496 34.688C19.24 36.6293 19.3253 38.0053 19.752 38.816C20.2 39.6053 21.0107 40 22.184 40C23.336 40 24.1467 39.616 24.616 38.848C25.0853 38.08 25.32 36.896 25.32 35.296V22.88H30.824ZM45.1973 22.88C47.7146 22.88 49.6666 23.4773 51.0533 24.672C52.4613 25.8453 53.1653 27.4133 53.1653 29.376C53.1653 31.5307 52.4719 33.1733 51.0853 34.304C49.6986 35.4347 47.7466 36 45.2293 36L44.7173 36.288H40.5253V44H35.1173V22.88H45.1973ZM44.4293 32.384C45.4959 32.384 46.2959 32.1707 46.8293 31.744C47.3626 31.3173 47.6293 30.6347 47.6293 29.696C47.6293 28.7787 47.3626 28.1067 46.8293 27.68C46.2959 27.2533 45.4959 27.04 44.4293 27.04H40.5253V32.384H44.4293ZM47.6613 33.536L54.4133 44H48.3333L42.9253 34.752L47.6613 33.536Z"/>
</mask>
<path d="M30.824 22.88V35.872C30.824 38.5387 30.056 40.6187 28.52 42.112C26.984 43.584 24.808 44.32 21.992 44.32C19.9227 44.32 18.2587 43.9573 17 43.232C15.7413 42.4853 14.8773 41.4613 14.408 40.16C13.9387 38.8373 13.8427 37.3333 14.12 35.648L19.496 34.688C19.24 36.6293 19.3253 38.0053 19.752 38.816C20.2 39.6053 21.0107 40 22.184 40C23.336 40 24.1467 39.616 24.616 38.848C25.0853 38.08 25.32 36.896 25.32 35.296V22.88H30.824ZM45.1973 22.88C47.7146 22.88 49.6666 23.4773 51.0533 24.672C52.4613 25.8453 53.1653 27.4133 53.1653 29.376C53.1653 31.5307 52.4719 33.1733 51.0853 34.304C49.6986 35.4347 47.7466 36 45.2293 36L44.7173 36.288H40.5253V44H35.1173V22.88H45.1973ZM44.4293 32.384C45.4959 32.384 46.2959 32.1707 46.8293 31.744C47.3626 31.3173 47.6293 30.6347 47.6293 29.696C47.6293 28.7787 47.3626 28.1067 46.8293 27.68C46.2959 27.2533 45.4959 27.04 44.4293 27.04H40.5253V32.384H44.4293ZM47.6613 33.536L54.4133 44H48.3333L42.9253 34.752L47.6613 33.536Z" fill="#0F0E17"/>
<path d="M30.824 22.88H31.824V21.88H30.824V22.88ZM28.52 42.112L29.2119 42.834L29.2171 42.829L28.52 42.112ZM17 43.232L16.4898 44.0921L16.5007 44.0984L17 43.232ZM14.408 40.16L13.4656 40.4944L13.4673 40.4993L14.408 40.16ZM14.12 35.648L13.9442 34.6636L13.2481 34.7879L13.1333 35.4856L14.12 35.648ZM19.496 34.688L20.4874 34.8187L20.6662 33.4632L19.3202 33.7036L19.496 34.688ZM19.752 38.816L18.8671 39.2817L18.8745 39.2958L18.8823 39.3096L19.752 38.816ZM24.616 38.848L23.7627 38.3265L23.7627 38.3265L24.616 38.848ZM25.32 22.88V21.88H24.32V22.88H25.32ZM29.824 22.88V35.872H31.824V22.88H29.824ZM29.824 35.872C29.824 38.3388 29.1201 40.1339 27.8229 41.395L29.2171 42.829C30.9919 41.1035 31.824 38.7385 31.824 35.872H29.824ZM27.8281 41.39C26.5322 42.6319 24.636 43.32 21.992 43.32V45.32C24.98 45.32 27.4358 44.5361 29.2119 42.834L27.8281 41.39ZM21.992 43.32C20.0277 43.32 18.5551 42.974 17.4993 42.3656L16.5007 44.0984C17.9623 44.9407 19.8176 45.32 21.992 45.32V43.32ZM17.5102 42.3719C16.4386 41.7363 15.7345 40.8905 15.3487 39.8207L13.4673 40.4993C14.0202 42.0322 15.044 43.2344 16.4898 44.0921L17.5102 42.3719ZM15.3504 39.8256C14.9486 38.6932 14.8509 37.3649 15.1067 35.8104L13.1333 35.4856C12.8344 37.3017 12.9287 38.9815 13.4656 40.4944L15.3504 39.8256ZM14.2958 36.6324L19.6718 35.6724L19.3202 33.7036L13.9442 34.6636L14.2958 36.6324ZM18.5046 34.5573C18.2463 36.5161 18.283 38.1719 18.8671 39.2817L20.6369 38.3503C20.3677 37.8388 20.2337 36.7425 20.4874 34.8187L18.5046 34.5573ZM18.8823 39.3096C19.5608 40.5051 20.7725 41 22.184 41V39C21.2489 39 20.8392 38.7056 20.6217 38.3224L18.8823 39.3096ZM22.184 41C23.5729 41 24.7669 40.5188 25.4693 39.3694L23.7627 38.3265C23.5264 38.7132 23.0991 39 22.184 39V41ZM25.4693 39.3694C26.0834 38.3646 26.32 36.956 26.32 35.296H24.32C24.32 36.836 24.0873 37.7954 23.7627 38.3265L25.4693 39.3694ZM26.32 35.296V22.88H24.32V35.296H26.32ZM25.32 23.88H30.824V21.88H25.32V23.88ZM51.0533 24.672L50.4005 25.4296L50.4068 25.435L50.4131 25.4402L51.0533 24.672ZM45.2293 36V35H44.9673L44.739 35.1284L45.2293 36ZM44.7173 36.288V37.288H44.9792L45.2075 37.1596L44.7173 36.288ZM40.5253 36.288V35.288H39.5253V36.288H40.5253ZM40.5253 44V45H41.5253V44H40.5253ZM35.1173 44H34.1173V45H35.1173V44ZM35.1173 22.88V21.88H34.1173V22.88H35.1173ZM46.8293 31.744L46.2046 30.9631L46.2046 30.9631L46.8293 31.744ZM46.8293 27.68L47.4539 26.8991L47.4539 26.8991L46.8293 27.68ZM40.5253 27.04V26.04H39.5253V27.04H40.5253ZM40.5253 32.384H39.5253V33.384H40.5253V32.384ZM47.6613 33.536L48.5015 32.9938L48.1107 32.3882L47.4126 32.5674L47.6613 33.536ZM54.4133 44V45H56.2486L55.2535 43.4578L54.4133 44ZM48.3333 44L47.47 44.5048L47.7596 45H48.3333V44ZM42.9253 34.752L42.6766 33.7834L41.3931 34.1129L42.062 35.2568L42.9253 34.752ZM45.1973 23.88C47.5649 23.88 49.2535 24.4414 50.4005 25.4296L51.706 23.9144C50.0796 22.5133 47.8643 21.88 45.1973 21.88V23.88ZM50.4131 25.4402C51.5753 26.4087 52.1653 27.6861 52.1653 29.376H54.1653C54.1653 27.1405 53.3472 25.2819 51.6934 23.9038L50.4131 25.4402ZM52.1653 29.376C52.1653 31.298 51.5591 32.6273 50.4533 33.529L51.7172 35.079C53.3847 33.7193 54.1653 31.7633 54.1653 29.376H52.1653ZM50.4533 33.529C49.3054 34.4649 47.6085 35 45.2293 35V37C47.8846 37 50.0917 36.4044 51.7172 35.079L50.4533 33.529ZM44.739 35.1284L44.227 35.4164L45.2075 37.1596L45.7195 36.8716L44.739 35.1284ZM44.7173 35.288H40.5253V37.288H44.7173V35.288ZM39.5253 36.288V44H41.5253V36.288H39.5253ZM40.5253 43H35.1173V45H40.5253V43ZM36.1173 44V22.88H34.1173V44H36.1173ZM35.1173 23.88H45.1973V21.88H35.1173V23.88ZM44.4293 33.384C45.6028 33.384 46.6679 33.1537 47.4539 32.5249L46.2046 30.9631C45.9239 31.1877 45.3891 31.384 44.4293 31.384V33.384ZM47.4539 32.5249C48.3049 31.8441 48.6293 30.8179 48.6293 29.696H46.6293C46.6293 30.4515 46.4203 30.7906 46.2046 30.9631L47.4539 32.5249ZM48.6293 29.696C48.6293 28.5863 48.2997 27.5757 47.4539 26.8991L46.2046 28.4609C46.4255 28.6376 46.6293 28.971 46.6293 29.696H48.6293ZM47.4539 26.8991C46.6679 26.2703 45.6028 26.04 44.4293 26.04V28.04C45.3891 28.04 45.9239 28.2363 46.2046 28.4609L47.4539 26.8991ZM44.4293 26.04H40.5253V28.04H44.4293V26.04ZM39.5253 27.04V32.384H41.5253V27.04H39.5253ZM40.5253 33.384H44.4293V31.384H40.5253V33.384ZM46.821 34.0782L53.573 44.5422L55.2535 43.4578L48.5015 32.9938L46.821 34.0782ZM54.4133 43H48.3333V45H54.4133V43ZM49.1965 43.4952L43.7885 34.2472L42.062 35.2568L47.47 44.5048L49.1965 43.4952ZM43.1739 35.7206L47.9099 34.5046L47.4126 32.5674L42.6766 33.7834L43.1739 35.7206Z" fill="#F25F4C" mask="url(#path-2-outside-1_278_451)"/>
</svg>
