<svg width="367" height="367" viewBox="0 0 367 367" fill="none" xmlns="http://www.w3.org/2000/svg">
<circle cx="183.5" cy="183.5" r="182" fill="#0F0E17" stroke="#F25F4C" stroke-width="3"/>
<mask id="path-2-outside-1_278_439" maskUnits="userSpaceOnUse" x="68" y="123" width="237" height="127" fill="black">
<rect fill="white" x="68" y="123" width="237" height="127"/>
<path d="M166.26 126.2V199.28C166.26 214.28 161.94 225.98 153.3 234.38C144.66 242.66 132.42 246.8 116.58 246.8C104.94 246.8 95.58 244.76 88.5 240.68C81.42 236.48 76.56 230.72 73.92 223.4C71.28 215.96 70.74 207.5 72.3 198.02L102.54 192.62C101.1 203.54 101.58 211.28 103.98 215.84C106.5 220.28 111.06 222.5 117.66 222.5C124.14 222.5 128.7 220.34 131.34 216.02C133.98 211.7 135.3 205.04 135.3 196.04V126.2H166.26ZM247.11 126.2C261.27 126.2 272.25 129.56 280.05 136.28C287.97 142.88 291.93 151.7 291.93 162.74C291.93 174.86 288.03 184.1 280.23 190.46C272.43 196.82 261.45 200 247.29 200L244.41 201.62H220.83V245H190.41V126.2H247.11ZM242.79 179.66C248.79 179.66 253.29 178.46 256.29 176.06C259.29 173.66 260.79 169.82 260.79 164.54C260.79 159.38 259.29 155.6 256.29 153.2C253.29 150.8 248.79 149.6 242.79 149.6H220.83V179.66H242.79ZM260.97 186.14L298.95 245H264.75L234.33 192.98L260.97 186.14Z"/>
</mask>
<path d="M166.26 126.2V199.28C166.26 214.28 161.94 225.98 153.3 234.38C144.66 242.66 132.42 246.8 116.58 246.8C104.94 246.8 95.58 244.76 88.5 240.68C81.42 236.48 76.56 230.72 73.92 223.4C71.28 215.96 70.74 207.5 72.3 198.02L102.54 192.62C101.1 203.54 101.58 211.28 103.98 215.84C106.5 220.28 111.06 222.5 117.66 222.5C124.14 222.5 128.7 220.34 131.34 216.02C133.98 211.7 135.3 205.04 135.3 196.04V126.2H166.26ZM247.11 126.2C261.27 126.2 272.25 129.56 280.05 136.28C287.97 142.88 291.93 151.7 291.93 162.74C291.93 174.86 288.03 184.1 280.23 190.46C272.43 196.82 261.45 200 247.29 200L244.41 201.62H220.83V245H190.41V126.2H247.11ZM242.79 179.66C248.79 179.66 253.29 178.46 256.29 176.06C259.29 173.66 260.79 169.82 260.79 164.54C260.79 159.38 259.29 155.6 256.29 153.2C253.29 150.8 248.79 149.6 242.79 149.6H220.83V179.66H242.79ZM260.97 186.14L298.95 245H264.75L234.33 192.98L260.97 186.14Z" fill="#0F0E17"/>
<path d="M166.26 126.2H169.26V123.2H166.26V126.2ZM153.3 234.38L155.376 236.546L155.384 236.539L155.391 236.531L153.3 234.38ZM88.5 240.68L86.9694 243.26L86.9857 243.27L87.0021 243.279L88.5 240.68ZM73.92 223.4L71.0927 224.403L71.0953 224.411L71.0979 224.418L73.92 223.4ZM72.3 198.02L71.7726 195.067L69.6843 195.44L69.3398 197.533L72.3 198.02ZM102.54 192.62L105.514 193.012L106.05 188.946L102.013 189.667L102.54 192.62ZM103.98 215.84L101.325 217.237L101.347 217.279L101.371 217.321L103.98 215.84ZM131.34 216.02L128.78 214.456L128.78 214.456L131.34 216.02ZM135.3 126.2V123.2H132.3V126.2H135.3ZM163.26 126.2V199.28H169.26V126.2H163.26ZM163.26 199.28C163.26 213.68 159.132 224.526 151.209 232.229L155.391 236.531C164.748 227.434 169.26 214.88 169.26 199.28H163.26ZM151.224 232.214C143.305 239.804 131.904 243.8 116.58 243.8V249.8C132.936 249.8 146.015 245.516 155.376 236.546L151.224 232.214ZM116.58 243.8C105.255 243.8 96.4692 241.81 89.9979 238.081L87.0021 243.279C94.6908 247.71 104.625 249.8 116.58 249.8V243.8ZM90.0306 238.1C83.5119 234.233 79.1315 229.008 76.7421 222.382L71.0979 224.418C73.9885 232.432 79.3281 238.727 86.9694 243.26L90.0306 238.1ZM76.7473 222.397C74.3098 215.528 73.7647 207.595 75.2602 198.507L69.3398 197.533C67.7153 207.405 68.2502 216.392 71.0927 224.403L76.7473 222.397ZM72.8274 200.973L103.067 195.573L102.013 189.667L71.7726 195.067L72.8274 200.973ZM99.5658 192.228C98.1188 203.2 98.4529 211.78 101.325 217.237L106.635 214.443C104.707 210.78 104.081 203.88 105.514 193.012L99.5658 192.228ZM101.371 217.321C104.582 222.979 110.345 225.5 117.66 225.5V219.5C111.775 219.5 108.418 217.581 106.589 214.359L101.371 217.321ZM117.66 225.5C124.851 225.5 130.561 223.048 133.9 217.584L128.78 214.456C126.839 217.632 123.429 219.5 117.66 219.5V225.5ZM133.9 217.584C136.974 212.554 138.3 205.22 138.3 196.04H132.3C132.3 204.86 130.986 210.846 128.78 214.456L133.9 217.584ZM138.3 196.04V126.2H132.3V196.04H138.3ZM135.3 129.2H166.26V123.2H135.3V129.2ZM280.05 136.28L278.091 138.553L278.11 138.569L278.129 138.585L280.05 136.28ZM247.29 200V197H246.504L245.819 197.385L247.29 200ZM244.41 201.62V204.62H245.195L245.88 204.235L244.41 201.62ZM220.83 201.62V198.62H217.83V201.62H220.83ZM220.83 245V248H223.83V245H220.83ZM190.41 245H187.41V248H190.41V245ZM190.41 126.2V123.2H187.41V126.2H190.41ZM256.29 176.06L254.415 173.717L254.415 173.717L256.29 176.06ZM256.29 153.2L258.164 150.857L258.164 150.857L256.29 153.2ZM220.83 149.6V146.6H217.83V149.6H220.83ZM220.83 179.66H217.83V182.66H220.83V179.66ZM260.97 186.14L263.49 184.513L262.318 182.696L260.223 183.234L260.97 186.14ZM298.95 245V248H304.456L301.47 243.373L298.95 245ZM264.75 245L262.16 246.514L263.029 248H264.75V245ZM234.33 192.98L233.583 190.074L229.733 191.063L231.74 194.494L234.33 192.98ZM247.11 129.2C260.82 129.2 271.01 132.452 278.091 138.553L282.008 134.007C273.489 126.668 261.719 123.2 247.11 123.2V129.2ZM278.129 138.585C285.312 144.57 288.93 152.518 288.93 162.74H294.93C294.93 150.882 290.628 141.19 281.97 133.975L278.129 138.585ZM288.93 162.74C288.93 174.162 285.291 182.462 278.334 188.135L282.125 192.785C290.768 185.738 294.93 175.558 294.93 162.74H288.93ZM278.334 188.135C271.25 193.911 261.035 197 247.29 197V203C261.864 203 273.609 199.729 282.125 192.785L278.334 188.135ZM245.819 197.385L242.939 199.005L245.88 204.235L248.76 202.615L245.819 197.385ZM244.41 198.62H220.83V204.62H244.41V198.62ZM217.83 201.62V245H223.83V201.62H217.83ZM220.83 242H190.41V248H220.83V242ZM193.41 245V126.2H187.41V245H193.41ZM190.41 129.2H247.11V123.2H190.41V129.2ZM242.79 182.66C249.11 182.66 254.406 181.409 258.164 178.403L254.415 173.717C252.173 175.511 248.469 176.66 242.79 176.66V182.66ZM258.164 178.403C262.116 175.24 263.79 170.37 263.79 164.54H257.79C257.79 169.27 256.463 172.08 254.415 173.717L258.164 178.403ZM263.79 164.54C263.79 158.803 262.101 154.007 258.164 150.857L254.415 155.543C256.478 157.193 257.79 159.957 257.79 164.54H263.79ZM258.164 150.857C254.406 147.851 249.11 146.6 242.79 146.6V152.6C248.469 152.6 252.173 153.749 254.415 155.543L258.164 150.857ZM242.79 146.6H220.83V152.6H242.79V146.6ZM217.83 149.6V179.66H223.83V149.6H217.83ZM220.83 182.66H242.79V176.66H220.83V182.66ZM258.449 187.767L296.429 246.627L301.47 243.373L263.49 184.513L258.449 187.767ZM298.95 242H264.75V248H298.95V242ZM267.339 243.486L236.919 191.466L231.74 194.494L262.16 246.514L267.339 243.486ZM235.076 195.886L261.716 189.046L260.223 183.234L233.583 190.074L235.076 195.886Z" fill="#F25F4C" mask="url(#path-2-outside-1_278_439)"/>
</svg>
