<svg width="166" height="166" viewBox="0 0 166 166" fill="none" xmlns="http://www.w3.org/2000/svg">
<circle cx="83" cy="83" r="83" fill="#0F0E17"/>
<mask id="path-2-outside-1_278_451" maskUnits="userSpaceOnUse" x="29" y="54" width="111" height="60" fill="black">
<rect fill="white" x="29" y="54" width="111" height="60"/>
<path d="M74.56 57.2V89.68C74.56 96.3467 72.64 101.547 68.8 105.28C64.96 108.96 59.52 110.8 52.48 110.8C47.3067 110.8 43.1467 109.893 40 108.08C36.8533 106.213 34.6933 103.653 33.52 100.4C32.3467 97.0933 32.1067 93.3333 32.8 89.12L46.24 86.72C45.6 91.5733 45.8133 95.0133 46.88 97.04C48 99.0133 50.0267 100 52.96 100C55.84 100 57.8667 99.04 59.04 97.12C60.2133 95.2 60.8 92.24 60.8 88.24V57.2H74.56ZM110.493 57.2C116.786 57.2 121.666 58.6933 125.133 61.68C128.653 64.6133 130.413 68.5333 130.413 73.44C130.413 78.8267 128.68 82.9333 125.213 85.76C121.746 88.5867 116.866 90 110.573 90L109.293 90.72H98.8131V110H85.2931V57.2H110.493ZM108.573 80.96C111.24 80.96 113.24 80.4267 114.573 79.36C115.906 78.2933 116.573 76.5867 116.573 74.24C116.573 71.9467 115.906 70.2667 114.573 69.2C113.24 68.1333 111.24 67.6 108.573 67.6H98.8131V80.96H108.573ZM116.653 83.84L133.533 110H118.333L104.813 86.88L116.653 83.84Z"/>
</mask>
<path d="M74.56 57.2V89.68C74.56 96.3467 72.64 101.547 68.8 105.28C64.96 108.96 59.52 110.8 52.48 110.8C47.3067 110.8 43.1467 109.893 40 108.08C36.8533 106.213 34.6933 103.653 33.52 100.4C32.3467 97.0933 32.1067 93.3333 32.8 89.12L46.24 86.72C45.6 91.5733 45.8133 95.0133 46.88 97.04C48 99.0133 50.0267 100 52.96 100C55.84 100 57.8667 99.04 59.04 97.12C60.2133 95.2 60.8 92.24 60.8 88.24V57.2H74.56ZM110.493 57.2C116.786 57.2 121.666 58.6933 125.133 61.68C128.653 64.6133 130.413 68.5333 130.413 73.44C130.413 78.8267 128.68 82.9333 125.213 85.76C121.746 88.5867 116.866 90 110.573 90L109.293 90.72H98.8131V110H85.2931V57.2H110.493ZM108.573 80.96C111.24 80.96 113.24 80.4267 114.573 79.36C115.906 78.2933 116.573 76.5867 116.573 74.24C116.573 71.9467 115.906 70.2667 114.573 69.2C113.24 68.1333 111.24 67.6 108.573 67.6H98.8131V80.96H108.573ZM116.653 83.84L133.533 110H118.333L104.813 86.88L116.653 83.84Z" fill="#0F0E17"/>
<path d="M74.56 57.2H77.56V54.2H74.56V57.2ZM68.8 105.28L70.8757 107.446L70.8835 107.439L70.8912 107.431L68.8 105.28ZM40 108.08L38.4694 110.66L38.4857 110.67L38.5021 110.679L40 108.08ZM33.52 100.4L30.6927 101.403L30.6953 101.411L30.6979 101.418L33.52 100.4ZM32.8 89.12L32.2726 86.1667L30.1843 86.5396L29.8398 88.6329L32.8 89.12ZM46.24 86.72L49.2143 87.1122L49.7505 83.0457L45.7126 83.7667L46.24 86.72ZM46.88 97.04L44.2252 98.4372L44.2474 98.4794L44.2709 98.5208L46.88 97.04ZM59.04 97.12L56.4802 95.5556L56.4802 95.5557L59.04 97.12ZM60.8 57.2V54.2H57.8V57.2H60.8ZM71.56 57.2V89.68H77.56V57.2H71.56ZM71.56 89.68C71.56 95.7471 69.8323 100.092 66.7088 103.129L70.8912 107.431C75.4477 103.001 77.56 96.9462 77.56 89.68H71.56ZM66.7243 103.114C63.6046 106.104 59.0041 107.8 52.48 107.8V113.8C60.0359 113.8 66.3154 111.816 70.8757 107.446L66.7243 103.114ZM52.48 107.8C47.6218 107.8 44.0358 106.943 41.4979 105.481L38.5021 110.679C42.2575 112.843 46.9915 113.8 52.48 113.8V107.8ZM41.5306 105.5C38.9452 103.966 37.2649 101.941 36.3421 99.3822L30.6979 101.418C32.1218 105.366 34.7614 108.461 38.4694 110.66L41.5306 105.5ZM36.3473 99.3968C35.3765 96.661 35.1314 93.4281 35.7602 89.6071L29.8398 88.6329C29.0819 93.2385 29.3168 97.5257 30.6927 101.403L36.3473 99.3968ZM33.3274 92.0733L46.7674 89.6733L45.7126 83.7667L32.2726 86.1667L33.3274 92.0733ZM43.2657 86.3278C42.6188 91.2338 42.6862 95.5131 44.2252 98.4372L49.5348 95.6428C48.9405 94.5136 48.5812 91.9129 49.2143 87.1122L43.2657 86.3278ZM44.2709 98.5208C46.0825 101.713 49.3121 103 52.96 103V97C50.7413 97 49.9175 96.3141 49.4891 95.5592L44.2709 98.5208ZM52.96 103C56.5507 103 59.7273 101.748 61.5998 98.6843L56.4802 95.5557C56.006 96.3315 55.1293 97 52.96 97V103ZM61.5998 98.6843C63.2074 96.0538 63.8 92.4201 63.8 88.24H57.8C57.8 92.0599 57.2193 94.3462 56.4802 95.5556L61.5998 98.6843ZM63.8 88.24V57.2H57.8V88.24H63.8ZM60.8 60.2H74.56V54.2H60.8V60.2ZM125.133 61.68L123.175 63.9528L123.194 63.9689L123.213 63.9847L125.133 61.68ZM110.573 90V87H109.787L109.102 87.3853L110.573 90ZM109.293 90.72V93.72H110.079L110.764 93.3347L109.293 90.72ZM98.8131 90.72V87.72H95.8131V90.72H98.8131ZM98.8131 110V113H101.813V110H98.8131ZM85.2931 110H82.2931V113H85.2931V110ZM85.2931 57.2V54.2H82.2931V57.2H85.2931ZM114.573 79.36L112.699 77.0174L112.699 77.0174L114.573 79.36ZM114.573 69.2L116.447 66.8574L116.447 66.8574L114.573 69.2ZM98.8131 67.6V64.6H95.8131V67.6H98.8131ZM98.8131 80.96H95.8131V83.96H98.8131V80.96ZM116.653 83.84L119.174 82.2134L118.001 80.3965L115.907 80.9342L116.653 83.84ZM133.533 110V113H139.039L136.054 108.373L133.533 110ZM118.333 110L115.743 111.514L116.612 113H118.333V110ZM104.813 86.88L104.067 83.9743L100.217 84.9628L102.223 88.3944L104.813 86.88ZM110.493 60.2C116.337 60.2 120.427 61.5856 123.175 63.9528L127.091 59.4072C122.906 55.8011 117.236 54.2 110.493 54.2V60.2ZM123.213 63.9847C125.995 66.3035 127.413 69.3517 127.413 73.44H133.413C133.413 67.715 131.311 62.9232 127.054 59.3753L123.213 63.9847ZM127.413 73.44C127.413 78.1288 125.941 81.2953 123.317 83.4349L127.109 88.0851C131.418 84.5713 133.413 79.5245 133.413 73.44H127.413ZM123.317 83.4349C120.567 85.6775 116.452 87 110.573 87V93C117.281 93 122.926 91.4959 127.109 88.0851L123.317 83.4349ZM109.102 87.3853L107.822 88.1053L110.764 93.3347L112.044 92.6147L109.102 87.3853ZM109.293 87.72H98.8131V93.72H109.293V87.72ZM95.8131 90.72V110H101.813V90.72H95.8131ZM98.8131 107H85.2931V113H98.8131V107ZM88.2931 110V57.2H82.2931V110H88.2931ZM85.2931 60.2H110.493V54.2H85.2931V60.2ZM108.573 83.96C111.56 83.96 114.356 83.3757 116.447 81.7026L112.699 77.0174C112.124 77.4777 110.919 77.96 108.573 77.96V83.96ZM116.447 81.7026C118.733 79.8736 119.573 77.1363 119.573 74.24H113.573C113.573 76.037 113.079 76.713 112.699 77.0174L116.447 81.7026ZM119.573 74.24C119.573 71.3697 118.718 68.6738 116.447 66.8574L112.699 71.5426C113.095 71.8596 113.573 72.5237 113.573 74.24H119.573ZM116.447 66.8574C114.356 65.1843 111.56 64.6 108.573 64.6V70.6C110.919 70.6 112.124 71.0823 112.699 71.5426L116.447 66.8574ZM108.573 64.6H98.8131V70.6H108.573V64.6ZM95.8131 67.6V80.96H101.813V67.6H95.8131ZM98.8131 83.96H108.573V77.96H98.8131V83.96ZM114.132 85.4666L131.012 111.627L136.054 108.373L119.174 82.2134L114.132 85.4666ZM133.533 107H118.333V113H133.533V107ZM120.923 108.486L107.403 85.3656L102.223 88.3944L115.743 111.514L120.923 108.486ZM105.559 89.7857L117.399 86.7457L115.907 80.9342L104.067 83.9743L105.559 89.7857Z" fill="#F25F4C" mask="url(#path-2-outside-1_278_451)"/>
</svg>
