<svg width="165" height="165" viewBox="0 0 165 165" fill="none" xmlns="http://www.w3.org/2000/svg">
<path fill-rule="evenodd" clip-rule="evenodd" d="M82.5 165C128.063 165 165 128.063 165 82.5C165 36.9365 128.063 0 82.5 0C36.9365 0 0 36.9365 0 82.5C0 128.063 36.9365 165 82.5 165ZM76.648 87.744V61.76H65.64V86.592C65.64 89.792 65.1707 92.16 64.232 93.696C63.2933 95.232 61.672 96 59.368 96C57.0213 96 55.4 95.2107 54.504 93.632C53.6507 92.0107 53.48 89.2587 53.992 85.376L43.24 87.296C42.6853 90.6667 42.8773 93.6747 43.816 96.32C44.7547 98.9227 46.4827 100.971 49 102.464C51.5173 103.915 54.8453 104.64 58.984 104.64C64.616 104.64 68.968 103.168 72.04 100.224C75.112 97.2373 76.648 93.0773 76.648 87.744ZM117.107 65.344C114.333 62.9547 110.429 61.76 105.395 61.76H85.2345V104H96.0505V88.576H102.647L111.667 104H123.827L112.823 86.9465C114.493 86.3886 115.943 85.6091 117.171 84.608C119.944 82.3467 121.331 79.0613 121.331 74.752C121.331 70.8267 119.923 67.6907 117.107 65.344ZM108.659 79.488C107.592 80.3413 105.992 80.768 103.859 80.768H96.0505V70.08H103.859C105.992 70.08 107.592 70.5067 108.659 71.36C109.725 72.2133 110.258 73.5573 110.258 75.392C110.258 77.2693 109.725 78.6347 108.659 79.488Z" fill="#0F0E17"/>
</svg>
