<svg width="108" height="108" viewBox="0 0 108 108" fill="none" xmlns="http://www.w3.org/2000/svg">
<circle cx="54" cy="54" r="53" fill="#0F0E17" stroke="#F25F4C" stroke-width="2"/>
<mask id="path-2-outside-1_277_432" maskUnits="userSpaceOnUse" x="21" y="36" width="67" height="37" fill="black">
<rect fill="white" x="21" y="36" width="67" height="37"/>
<path d="M48.736 38.32V57.808C48.736 61.808 47.584 64.928 45.28 67.168C42.976 69.376 39.712 70.48 35.488 70.48C32.384 70.48 29.888 69.936 28 68.848C26.112 67.728 24.816 66.192 24.112 64.24C23.408 62.256 23.264 60 23.68 57.472L31.744 56.032C31.36 58.944 31.488 61.008 32.128 62.224C32.8 63.408 34.016 64 35.776 64C37.504 64 38.72 63.424 39.424 62.272C40.128 61.12 40.48 59.344 40.48 56.944V38.32H48.736ZM70.2959 38.32C74.0719 38.32 76.9999 39.216 79.0799 41.008C81.1919 42.768 82.2479 45.12 82.2479 48.064C82.2479 51.296 81.2079 53.76 79.1279 55.456C77.0479 57.152 74.1199 58 70.3439 58L69.5759 58.432H63.2879V70H55.1759V38.32H70.2959ZM69.1439 52.576C70.7439 52.576 71.9439 52.256 72.7439 51.616C73.5439 50.976 73.9439 49.952 73.9439 48.544C73.9439 47.168 73.5439 46.16 72.7439 45.52C71.9439 44.88 70.7439 44.56 69.1439 44.56H63.2879V52.576H69.1439ZM73.9919 54.304L84.1199 70H74.9999L66.8879 56.128L73.9919 54.304Z"/>
</mask>
<path d="M48.736 38.32V57.808C48.736 61.808 47.584 64.928 45.28 67.168C42.976 69.376 39.712 70.48 35.488 70.48C32.384 70.48 29.888 69.936 28 68.848C26.112 67.728 24.816 66.192 24.112 64.24C23.408 62.256 23.264 60 23.68 57.472L31.744 56.032C31.36 58.944 31.488 61.008 32.128 62.224C32.8 63.408 34.016 64 35.776 64C37.504 64 38.72 63.424 39.424 62.272C40.128 61.12 40.48 59.344 40.48 56.944V38.32H48.736ZM70.2959 38.32C74.0719 38.32 76.9999 39.216 79.0799 41.008C81.1919 42.768 82.2479 45.12 82.2479 48.064C82.2479 51.296 81.2079 53.76 79.1279 55.456C77.0479 57.152 74.1199 58 70.3439 58L69.5759 58.432H63.2879V70H55.1759V38.32H70.2959ZM69.1439 52.576C70.7439 52.576 71.9439 52.256 72.7439 51.616C73.5439 50.976 73.9439 49.952 73.9439 48.544C73.9439 47.168 73.5439 46.16 72.7439 45.52C71.9439 44.88 70.7439 44.56 69.1439 44.56H63.2879V52.576H69.1439ZM73.9919 54.304L84.1199 70H74.9999L66.8879 56.128L73.9919 54.304Z" fill="#0F0E17"/>
<path d="M48.736 38.32H50.736V36.32H48.736V38.32ZM45.28 67.168L46.6638 68.612L46.669 68.607L46.6742 68.602L45.28 67.168ZM28 68.848L26.9796 70.5681L26.9905 70.5746L27.0014 70.5809L28 68.848ZM24.112 64.24L22.2271 64.9088L22.2306 64.9185L24.112 64.24ZM23.68 57.472L23.3284 55.5031L21.9362 55.7518L21.7065 57.1473L23.68 57.472ZM31.744 56.032L33.7268 56.2935L34.0843 53.5824L31.3924 54.0631L31.744 56.032ZM32.128 62.224L30.3582 63.1555L30.373 63.1836L30.3886 63.2112L32.128 62.224ZM39.424 62.272L37.7174 61.2291L37.7174 61.2291L39.424 62.272ZM40.48 38.32V36.32H38.48V38.32H40.48ZM46.736 38.32V57.808H50.736V38.32H46.736ZM46.736 57.808C46.736 61.4083 45.7122 63.9584 43.8858 65.734L46.6742 68.602C49.4558 65.8976 50.736 62.2077 50.736 57.808H46.736ZM43.8962 65.724C42.0724 67.4718 39.3681 68.48 35.488 68.48V72.48C40.0559 72.48 43.8796 71.2802 46.6638 68.612L43.8962 65.724ZM35.488 68.48C32.5941 68.48 30.4808 67.9693 28.9986 67.1151L27.0014 70.5809C29.2952 71.9027 32.1739 72.48 35.488 72.48V68.48ZM29.0204 67.1279C27.5066 66.2299 26.5304 65.0504 25.9934 63.5615L22.2306 64.9185C23.1016 67.3336 24.7174 69.2261 26.9796 70.5681L29.0204 67.1279ZM25.9969 63.5712C25.4279 61.9678 25.2805 60.0632 25.6535 57.7967L21.7065 57.1473C21.2475 59.9368 21.3881 62.5442 22.2271 64.9088L25.9969 63.5712ZM24.0316 59.4409L32.0956 58.0009L31.3924 54.0631L23.3284 55.5031L24.0316 59.4409ZM29.7612 55.7705C29.3725 58.7176 29.4032 61.3411 30.3582 63.1555L33.8978 61.2925C33.5728 60.6749 33.3475 59.1704 33.7268 56.2935L29.7612 55.7705ZM30.3886 63.2112C31.5217 65.2075 33.5396 66 35.776 66V62C34.4924 62 34.0783 61.6085 33.8674 61.2368L30.3886 63.2112ZM35.776 66C37.9778 66 39.9604 65.2296 41.1306 63.3149L37.7174 61.2291C37.4796 61.6184 37.0302 62 35.776 62V66ZM41.1306 63.3149C42.124 61.6892 42.48 59.4641 42.48 56.944H38.48C38.48 59.2239 38.132 60.5508 37.7174 61.2291L41.1306 63.3149ZM42.48 56.944V38.32H38.48V56.944H42.48ZM40.48 40.32H48.736V36.32H40.48V40.32ZM79.0799 41.008L77.7745 42.5232L77.7869 42.5339L77.7995 42.5444L79.0799 41.008ZM70.3439 58V56H69.82L69.3634 56.2568L70.3439 58ZM69.5759 58.432V60.432H70.0998L70.5564 60.1752L69.5759 58.432ZM63.2879 58.432V56.432H61.2879V58.432H63.2879ZM63.2879 70V72H65.2879V70H63.2879ZM55.1759 70H53.1759V72H55.1759V70ZM55.1759 38.32V36.32H53.1759V38.32H55.1759ZM72.7439 51.616L71.4945 50.0543L71.4945 50.0543L72.7439 51.616ZM72.7439 45.52L73.9933 43.9583L73.9933 43.9583L72.7439 45.52ZM63.2879 44.56V42.56H61.2879V44.56H63.2879ZM63.2879 52.576H61.2879V54.576H63.2879V52.576ZM73.9919 54.304L75.6724 53.2196L74.8908 52.0083L73.4945 52.3668L73.9919 54.304ZM84.1199 70V72H87.7906L85.8004 68.9156L84.1199 70ZM74.9999 70L73.2734 71.0096L73.8526 72H74.9999V70ZM66.8879 56.128L66.3905 54.1908L63.8236 54.8499L65.1614 57.1376L66.8879 56.128ZM70.2959 40.32C73.7725 40.32 76.1738 41.1442 77.7745 42.5232L80.3853 39.4928C77.826 37.2878 74.3712 36.32 70.2959 36.32V40.32ZM77.7995 42.5444C79.4199 43.8948 80.2479 45.6656 80.2479 48.064H84.2479C84.2479 44.5744 82.9639 41.6412 80.3602 39.4716L77.7995 42.5444ZM80.2479 48.064C80.2479 50.8308 79.3822 52.668 77.864 53.906L80.3918 57.006C83.0335 54.852 84.2479 51.7612 84.2479 48.064H80.2479ZM77.864 53.906C76.2616 55.2125 73.8438 56 70.3439 56V60C74.396 60 77.8342 59.0915 80.3918 57.006L77.864 53.906ZM69.3634 56.2568L68.5954 56.6888L70.5564 60.1752L71.3244 59.7432L69.3634 56.2568ZM69.5759 56.432H63.2879V60.432H69.5759V56.432ZM61.2879 58.432V70H65.2879V58.432H61.2879ZM63.2879 68H55.1759V72H63.2879V68ZM57.1759 70V38.32H53.1759V70H57.1759ZM55.1759 40.32H70.2959V36.32H55.1759V40.32ZM69.1439 54.576C70.9576 54.576 72.6879 54.222 73.9933 53.1777L71.4945 50.0543C71.1998 50.29 70.5302 50.576 69.1439 50.576V54.576ZM73.9933 53.1777C75.4285 52.0295 75.9439 50.3184 75.9439 48.544H71.9439C71.9439 49.5856 71.6592 49.9225 71.4945 50.0543L73.9933 53.1777ZM75.9439 48.544C75.9439 46.7833 75.418 45.0981 73.9933 43.9583L71.4945 47.0817C71.6697 47.2219 71.9439 47.5527 71.9439 48.544H75.9439ZM73.9933 43.9583C72.6879 42.914 70.9576 42.56 69.1439 42.56V46.56C70.5302 46.56 71.1998 46.846 71.4945 47.0817L73.9933 43.9583ZM69.1439 42.56H63.2879V46.56H69.1439V42.56ZM61.2879 44.56V52.576H65.2879V44.56H61.2879ZM63.2879 54.576H69.1439V50.576H63.2879V54.576ZM72.3114 55.3884L82.4394 71.0844L85.8004 68.9156L75.6724 53.2196L72.3114 55.3884ZM84.1199 68H74.9999V72H84.1199V68ZM76.7263 68.9904L68.6143 55.1184L65.1614 57.1376L73.2734 71.0096L76.7263 68.9904ZM67.3853 58.0652L74.4893 56.2412L73.4945 52.3668L66.3905 54.1908L67.3853 58.0652Z" fill="#F25F4C" mask="url(#path-2-outside-1_277_432)"/>
</svg>
