<svg width="166" height="166" viewBox="0 0 166 166" fill="none" xmlns="http://www.w3.org/2000/svg">
<path fill-rule="evenodd" clip-rule="evenodd" d="M83 166C128.84 166 166 128.84 166 83C166 37.1604 128.84 0 83 0C37.1604 0 0 37.1604 0 83C0 128.84 37.1604 166 83 166ZM76.648 88.744V62.76H65.64V87.592C65.64 90.792 65.1707 93.16 64.232 94.696C63.2933 96.232 61.672 97 59.368 97C57.0213 97 55.4 96.2107 54.504 94.632C53.6507 93.0107 53.48 90.2587 53.992 86.376L43.24 88.296C42.6853 91.6667 42.8773 94.6747 43.816 97.32C44.7547 99.9227 46.4827 101.971 49 103.464C51.5173 104.915 54.8453 105.64 58.984 105.64C64.616 105.64 68.968 104.168 72.04 101.224C75.112 98.2373 76.648 94.0773 76.648 88.744ZM117.107 66.344C114.333 63.9547 110.429 62.76 105.395 62.76H85.2345V105H96.0505V89.576H102.647L111.667 105H123.827L112.823 87.9465C114.493 87.3886 115.943 86.6091 117.171 85.608C119.944 83.3467 121.331 80.0613 121.331 75.752C121.331 71.8267 119.923 68.6907 117.107 66.344ZM108.659 80.488C107.592 81.3413 105.992 81.768 103.859 81.768H96.0505V71.08H103.859C105.992 71.08 107.592 71.5067 108.659 72.36C109.725 73.2133 110.258 74.5573 110.258 76.392C110.258 78.2693 109.725 79.6347 108.659 80.488Z" fill="#F25F4C"/>
</svg>
